# xmcd CD database file
#
# Track frame offsets:
#	150
#	16315
#	32406
#	48342
#	64414
#	76194
#	94030
#	109814
#	123509
#	146584
#
# Disc length: 2133 seconds
#
# Revision: 1
# Processed by: cddbd v1.4b42PL1 Copyright (c) Steve Scherf et al.
# Submitted via: CDex 1.40Beta4
#
DISCID=7d08530a
DTITLE=The Don Kelley Band - Just Walkin The Dog
DYEAR=1999
DGENRE=Blues
TTITLE0=Workin' Man Blues
TTITLE1=Walkin' The Dog
TTITLE2=You Win Again
TTITLE3=Honey Hush
TTITLE4=Head Over Heels
TTITLE5=Start It Up
TTITLE6=Dianne
TTITLE7=Way To Survive
TTITLE8=Just Enough To Keep Me Hangin' On
TTITLE9=When A Man Loves A Woman
EXTD=YEAR: 1999 ID3G:   0
EXTT0=
EXTT1=
EXTT2=
EXTT3=
EXTT4=
EXTT5=
EXTT6=
EXTT7=
EXTT8=
EXTT9=
PLAYORDER=
